<svg xmlns="http://www.w3.org/2000/svg" width="18" height="15" viewBox="0 0 18 15" fill="none">
  <path fill-rule="evenodd" clip-rule="evenodd" d="M17.53 6.96918C17.6705 7.1098 17.7494 7.30043 17.7494 7.49918C17.7494 7.69793 17.6705 7.88855 17.53 8.02918L11.53 14.0292C11.4614 14.1029 11.3786 14.162 11.2866 14.203C11.1946 14.2439 11.0953 14.266 10.9946 14.2678C10.8939 14.2695 10.7938 14.251 10.7005 14.2133C10.6071 14.1756 10.5222 14.1194 10.451 14.0482C10.3798 13.977 10.3236 13.8922 10.2859 13.7988C10.2482 13.7054 10.2297 13.6054 10.2315 13.5047C10.2332 13.404 10.2553 13.3046 10.2963 13.2126C10.3373 13.1206 10.3964 13.0378 10.47 12.9692L15.19 8.24918L1.00005 8.24918C0.801138 8.24918 0.61037 8.17016 0.469719 8.02951C0.329067 7.88885 0.250049 7.69809 0.250049 7.49918C0.250049 7.30026 0.329067 7.1095 0.469719 6.96885C0.61037 6.82819 0.801138 6.74918 1.00005 6.74918L15.19 6.74918L10.47 2.02918C10.3964 1.96051 10.3373 1.87771 10.2963 1.78571C10.2553 1.69372 10.2332 1.5944 10.2315 1.4937C10.2297 1.393 10.2482 1.29297 10.2859 1.19958C10.3236 1.10619 10.3798 1.02136 10.451 0.950138C10.5222 0.878919 10.6071 0.822775 10.7005 0.785054C10.7938 0.747333 10.8939 0.728808 10.9946 0.730585C11.0953 0.732362 11.1946 0.754403 11.2866 0.795395C11.3786 0.836387 11.4614 0.89549 11.53 0.969176L17.53 6.96918Z" fill="#101828"/>
</svg>