<svg xmlns="http://www.w3.org/2000/svg" width="21" height="20" viewBox="0 0 21 20" fill="none">
  <path d="M17.208 4.375L3.45801 4.37501" stroke="#E84646" stroke-width="1.25" stroke-linecap="round" stroke-linejoin="round"/>
  <path d="M8.4585 8.125V13.125" stroke="#E84646" stroke-width="1.25" stroke-linecap="round" stroke-linejoin="round"/>
  <path d="M12.2085 8.125V13.125" stroke="#E84646" stroke-width="1.25" stroke-linecap="round" stroke-linejoin="round"/>
  <path d="M15.9585 4.375V16.25C15.9585 16.4158 15.8926 16.5747 15.7754 16.6919C15.6582 16.8092 15.4993 16.875 15.3335 16.875H5.3335C5.16774 16.875 5.00876 16.8092 4.89155 16.6919C4.77434 16.5747 4.7085 16.4158 4.7085 16.25V4.375" stroke="#E84646" stroke-width="1.25" stroke-linecap="round" stroke-linejoin="round"/>
  <path d="M13.4585 4.375V3.125C13.4585 2.79348 13.3268 2.47554 13.0924 2.24112C12.858 2.0067 12.54 1.875 12.2085 1.875H8.4585C8.12698 1.875 7.80903 2.0067 7.57461 2.24112C7.34019 2.47554 7.2085 2.79348 7.2085 3.125V4.375" stroke="#E84646" stroke-width="1.25" stroke-linecap="round" stroke-linejoin="round"/>
</svg>