<svg xmlns="http://www.w3.org/2000/svg" width="20" height="20" viewBox="0 0 20 20" fill="none">
  <g clip-path="url(#clip0_1799_4084)">
    <path d="M14.3201 0.599609H5.6801C5.0801 0.599609 4.6001 1.07961 4.6001 1.67961V18.4996C4.6001 19.0996 5.0801 19.5796 5.6801 19.5796H14.3201C14.9201 19.5796 15.4001 19.0996 15.4001 18.4996V1.67961C15.4001 1.07961 14.9201 0.599609 14.3201 0.599609ZM8.7401 1.69961H11.2201C11.4201 1.69961 11.5801 1.85961 11.5801 2.05961C11.5801 2.25961 11.4201 2.41961 11.2201 2.41961H8.7401C8.5401 2.41961 8.3801 2.25961 8.3801 2.05961C8.3801 1.85961 8.5401 1.69961 8.7401 1.69961ZM10.0001 18.4196C9.5001 18.4196 9.0801 18.0196 9.0801 17.5196C9.0801 17.0196 9.4801 16.6196 10.0001 16.6196C10.5001 16.6196 10.9001 17.0196 10.9001 17.5196C10.9001 18.0196 10.5001 18.4196 10.0001 18.4196ZM14.0001 15.4396H6.0001V3.49961H14.0001V15.4396Z" fill="#3A416F"/>
    <path d="M7.97992 10.7191C8.05992 10.7991 8.17992 10.8391 8.27992 10.8391C8.37992 10.8391 8.49992 10.7991 8.57992 10.7191C8.73992 10.5591 8.73992 10.2791 8.57992 10.1191L7.93992 9.47914L8.57992 8.83914C8.73992 8.67914 8.73992 8.39914 8.57992 8.23914C8.41992 8.07914 8.13992 8.07914 7.97992 8.23914L7.03992 9.17914C6.87992 9.33914 6.87992 9.61914 7.03992 9.77914L7.97992 10.7191Z" fill="#3A416F" fill-opacity="0.5986"/>
    <path d="M11.4203 10.7191C11.5003 10.7991 11.6203 10.8391 11.7203 10.8391C11.8203 10.8391 11.9403 10.7991 12.0203 10.7191L12.9603 9.77914C13.0403 9.69914 13.0803 9.59914 13.0803 9.47914C13.0803 9.35914 13.0403 9.25914 12.9603 9.17914L12.0203 8.23914C11.8603 8.07914 11.5803 8.07914 11.4203 8.23914C11.2603 8.39914 11.2603 8.67914 11.4203 8.83914L12.0603 9.47914L11.4203 10.1191C11.2603 10.2791 11.2603 10.5391 11.4203 10.7191Z" fill="#3A416F" fill-opacity="0.5986"/>
    <path d="M9.50015 11.5391C9.54015 11.5391 9.56015 11.5591 9.60015 11.5591C9.80015 11.5591 9.96015 11.4191 10.0201 11.2391L10.8201 7.93913C10.8801 7.71913 10.7402 7.47913 10.5002 7.41913C10.2802 7.35913 10.0402 7.49913 9.98015 7.73913L9.18015 11.0391C9.14015 11.2591 9.28015 11.4791 9.50015 11.5391Z" fill="#3A416F" fill-opacity="0.5986"/>
  </g>
  <defs>
    <clipPath id="clip0_1799_4084">
      <rect width="20" height="20" fill="white"/>
    </clipPath>
  </defs>
</svg>