<svg xmlns="http://www.w3.org/2000/svg" width="20" height="20" viewBox="0 0 20 20" fill="none">
  <path d="M17.0282 16.6719C16.9782 16.7469 16.8907 16.7875 16.8 16.775L15.0063 16.5156L14.3594 18.2094C14.325 18.2938 14.2469 18.35 14.1594 18.3594H14.1407C14.0563 18.3594 13.9782 18.3156 13.9375 18.2437L12.2469 15.3687C12.4219 15.325 12.6375 15.3125 12.8688 15.3C13.3782 15.2719 13.9594 15.2375 14.4532 14.8781C14.9375 14.525 15.15 13.9969 15.3344 13.525L17.0344 16.425C17.0813 16.5 17.0782 16.5969 17.0282 16.6719ZM7.13441 15.3C6.61879 15.2719 6.04066 15.2375 5.54691 14.8781C5.06254 14.525 4.85004 13.9969 4.66566 13.525L2.96566 16.425C2.91879 16.5 2.92191 16.5969 2.97191 16.6719C3.02191 16.7469 3.10941 16.7844 3.20004 16.775L4.99379 16.5156L5.64066 18.2094C5.67504 18.2938 5.75316 18.35 5.84066 18.3594H5.85941C5.94379 18.3594 6.02191 18.3156 6.06254 18.2437L7.75316 15.3687C7.57816 15.325 7.36254 15.3125 7.13441 15.3ZM11.7938 9.54063C11.4063 9.54063 11.0907 9.85625 11.0907 10.2437C11.0907 10.6312 11.4063 10.9469 11.7938 10.9469C12.1813 10.9469 12.4969 10.6312 12.4969 10.2437C12.4969 9.85625 12.1813 9.54063 11.7938 9.54063ZM8.20629 7.95937C8.59379 7.95937 8.90941 7.64375 8.90941 7.25625C8.90941 6.86875 8.59379 6.55312 8.20629 6.55312C7.81879 6.55312 7.50316 6.86875 7.50316 7.25625C7.50316 7.64375 7.81879 7.95937 8.20629 7.95937ZM10 4.20312C7.49066 4.20312 5.45316 6.24375 5.45316 8.75C5.45316 11.2563 7.49379 13.2969 10 13.2969C12.5063 13.2969 14.5469 11.2563 14.5469 8.75C14.5469 6.24375 12.5063 4.20312 10 4.20312ZM8.20629 6.08437C8.85316 6.08437 9.37816 6.60938 9.37816 7.25625C9.37816 7.90312 8.85316 8.42812 8.20629 8.42812C7.55941 8.42812 7.03441 7.90312 7.03441 7.25625C7.03441 6.60938 7.55941 6.08437 8.20629 6.08437ZM7.66566 11.4156C7.61879 11.4625 7.55941 11.4844 7.50004 11.4844C7.44066 11.4844 7.38129 11.4625 7.33441 11.4156C7.24379 11.325 7.24379 11.175 7.33441 11.0844L12.3344 6.08437C12.425 5.99375 12.575 5.99375 12.6657 6.08437C12.7563 6.175 12.7563 6.325 12.6657 6.41563L7.66566 11.4156ZM11.7938 11.4156C11.1469 11.4156 10.6219 10.8906 10.6219 10.2437C10.6219 9.59687 11.1469 9.07188 11.7938 9.07188C12.4407 9.07188 12.9657 9.59687 12.9657 10.2437C12.9657 10.8906 12.4407 11.4156 11.7938 11.4156ZM16.5125 8.75C16.5125 8.4875 16.5875 8.20625 16.6657 7.9125C16.7844 7.4625 16.9063 6.99375 16.7625 6.55312C16.6125 6.09375 16.2313 5.78437 15.8594 5.4875C15.6282 5.3 15.4094 5.125 15.2657 4.925C15.1188 4.72188 15.0157 4.45625 14.9094 4.17812C14.7407 3.7375 14.5625 3.28125 14.1782 3C13.7969 2.72188 13.3125 2.69375 12.8407 2.66875C12.5407 2.65312 12.2532 2.63438 12.0125 2.55625C11.7844 2.48125 11.5532 2.33125 11.3094 2.17187C10.9094 1.90937 10.4938 1.64062 10 1.64062C9.50629 1.64062 9.09379 1.90937 8.69066 2.17187C8.44691 2.33125 8.21566 2.48125 7.98754 2.55625C7.74379 2.63438 7.45941 2.65 7.15941 2.66875C6.69066 2.69375 6.20316 2.72188 5.82191 3C5.43754 3.28125 5.25941 3.7375 5.09066 4.17812C4.98129 4.45937 4.88129 4.72188 4.73441 4.925C4.59066 5.125 4.37191 5.3 4.14066 5.4875C3.77191 5.7875 3.38754 6.09375 3.23754 6.55625C3.09379 6.99687 3.21566 7.4625 3.33441 7.91563C3.41254 8.2125 3.48754 8.49062 3.48754 8.75313C3.48754 9.01562 3.41254 9.29688 3.33441 9.59063C3.21566 10.0406 3.09379 10.5094 3.23754 10.95C3.38754 11.4094 3.76879 11.7188 4.14066 12.0156C4.37191 12.2031 4.59066 12.3781 4.73441 12.5781C4.88129 12.7812 4.98441 13.0469 5.09066 13.325C5.25941 13.7656 5.43754 14.2219 5.82191 14.5031C6.20316 14.7812 6.68754 14.8094 7.15941 14.8344C7.45941 14.85 7.74691 14.8688 7.98754 14.9469C8.21566 15.0219 8.44691 15.1719 8.69066 15.3313C9.09066 15.5938 9.50629 15.8625 10 15.8625C10.4938 15.8625 10.9063 15.5938 11.3094 15.3313C11.5532 15.1719 11.7844 15.0219 12.0125 14.9469C12.2563 14.8688 12.5407 14.8531 12.8407 14.8344C13.3094 14.8094 13.7969 14.7812 14.1782 14.5031C14.5625 14.2219 14.7407 13.7656 14.9094 13.325C15.0188 13.0437 15.1188 12.7812 15.2657 12.5781C15.4094 12.3781 15.6282 12.2031 15.8594 12.0156C16.2282 11.7156 16.6125 11.4094 16.7625 10.9469C16.9063 10.5062 16.7844 10.0406 16.6657 9.5875C16.5875 9.29063 16.5125 9.0125 16.5125 8.75ZM10 13.7656C7.23441 13.7656 4.98441 11.5156 4.98441 8.75C4.98441 5.98438 7.23441 3.73438 10 3.73438C12.7657 3.73438 15.0157 5.98438 15.0157 8.75C15.0157 11.5156 12.7657 13.7656 10 13.7656Z" fill="#3A416F"/>
  <path opacity="0.598" d="M17.028 16.6719C16.978 16.7469 16.8905 16.7875 16.7999 16.775L15.0062 16.5156L14.3593 18.2094C14.3249 18.2937 14.2468 18.35 14.1593 18.3594H14.1405C14.0562 18.3594 13.978 18.3156 13.9374 18.2437L12.2468 15.3687C12.4218 15.325 12.6374 15.3125 12.8687 15.3C13.378 15.2719 13.9593 15.2375 14.453 14.8781C14.9374 14.525 15.1499 13.9969 15.3343 13.525L17.0343 16.425C17.0812 16.5 17.078 16.5969 17.028 16.6719ZM7.13429 15.3C6.61866 15.2719 6.04054 15.2375 5.54679 14.8781C5.06241 14.525 4.84991 13.9969 4.66554 13.525L2.96554 16.425C2.91866 16.5 2.92179 16.5969 2.97179 16.6719C3.02179 16.7469 3.10929 16.7844 3.19991 16.775L4.99366 16.5156L5.64054 18.2094C5.67491 18.2937 5.75304 18.35 5.84054 18.3594H5.85929C5.94366 18.3594 6.02179 18.3156 6.06241 18.2437L7.75304 15.3687C7.57804 15.325 7.36241 15.3125 7.13429 15.3Z" fill="#898DA9"/>
</svg>