<svg xmlns="http://www.w3.org/2000/svg" width="22" height="17" viewBox="0 0 22 17" fill="none">
  <path d="M1.34766 12.25L6.50666 7.091C6.71559 6.88206 6.96363 6.71633 7.23661 6.60325C7.5096 6.49018 7.80218 6.43198 8.09766 6.43198C8.39313 6.43198 8.68572 6.49018 8.9587 6.60325C9.23168 6.71633 9.47972 6.88206 9.68866 7.091L14.8477 12.25M13.3477 10.75L14.7567 9.341C14.9656 9.13206 15.2136 8.96633 15.4866 8.85325C15.7596 8.74018 16.0522 8.68198 16.3477 8.68198C16.6431 8.68198 16.9357 8.74018 17.2087 8.85325C17.4817 8.96633 17.7297 9.13206 17.9387 9.341L20.8477 12.25M2.84766 16H19.3477C19.7455 16 20.127 15.842 20.4083 15.5607C20.6896 15.2794 20.8477 14.8978 20.8477 14.5V2.5C20.8477 2.10218 20.6896 1.72064 20.4083 1.43934C20.127 1.15804 19.7455 1 19.3477 1H2.84766C2.44983 1 2.0683 1.15804 1.787 1.43934C1.50569 1.72064 1.34766 2.10218 1.34766 2.5V14.5C1.34766 14.8978 1.50569 15.2794 1.787 15.5607C2.0683 15.842 2.44983 16 2.84766 16ZM13.3477 4.75H13.3557V4.758H13.3477V4.75ZM13.7227 4.75C13.7227 4.84946 13.6831 4.94484 13.6128 5.01517C13.5425 5.08549 13.4471 5.125 13.3477 5.125C13.2482 5.125 13.1528 5.08549 13.0825 5.01517C13.0122 4.94484 12.9727 4.84946 12.9727 4.75C12.9727 4.65054 13.0122 4.55516 13.0825 4.48484C13.1528 4.41451 13.2482 4.375 13.3477 4.375C13.4471 4.375 13.5425 4.41451 13.6128 4.48484C13.6831 4.55516 13.7227 4.65054 13.7227 4.75Z" stroke="#626C70" stroke-width="1.5" stroke-linecap="round" stroke-linejoin="round"/>
</svg>