<svg width="485" height="354" viewBox="0 0 485 354" fill="none" xmlns="http://www.w3.org/2000/svg">
<g style="mix-blend-mode:luminosity" filter="url(#filter0_d_1_1147)">
<rect x="99.5159" y="69.4092" width="298.908" height="213.336" fill="#C4C4C4"/>
</g>
<path d="M71.7041 81.4681V76.1237C71.7041 75.6012 71.2802 75.1773 70.7577 75.1773H69.3817C68.9792 75.1773 68.6225 74.9036 68.5329 74.511C68.0568 72.4358 67.246 70.4883 66.1521 68.7327C65.9342 68.3829 65.9754 67.9308 66.2668 67.6393L67.234 66.6721C67.6037 66.3024 67.6037 65.7033 67.234 65.3337L63.4554 61.555C63.0857 61.1853 62.4866 61.1853 62.1169 61.555L61.1508 62.5212C60.8588 62.8132 60.4072 62.8544 60.0569 62.6359C58.3018 61.5415 56.3538 60.7296 54.2781 60.2531C53.886 60.1629 53.6123 59.8067 53.6123 59.4042V58.0329C53.6123 57.5105 53.1883 57.0865 52.6659 57.0865H47.3215C46.799 57.0865 46.3751 57.5105 46.3751 58.0329V59.4042C46.3751 59.8067 46.1014 60.1634 45.7087 60.2531C43.6325 60.7296 41.684 61.5415 39.9289 62.6359C39.5786 62.8544 39.127 62.8132 38.835 62.5212L37.8699 61.5561C37.5002 61.1864 36.9011 61.1864 36.5314 61.5561L32.7528 65.3347C32.3831 65.7044 32.3831 66.3035 32.7528 66.6732L33.719 67.6393C34.011 67.9313 34.0522 68.3829 33.8337 68.7332C32.7403 70.4888 31.929 72.4368 31.4529 74.512C31.3627 74.9046 31.0066 75.1784 30.6036 75.1784H29.2297C28.7067 75.1784 28.2833 75.6023 28.2833 76.1247V81.4692C28.2833 81.9916 28.7072 82.4155 29.2297 82.4155H30.6041C31.0066 82.4155 31.3632 82.6887 31.4529 83.0813C31.93 85.1571 32.7413 87.1045 33.8347 88.8591C34.0532 89.2089 34.0115 89.661 33.72 89.953L32.7528 90.9202C32.3831 91.2899 32.3831 91.889 32.7528 92.2586L36.5314 96.0378C36.9006 96.4075 37.5002 96.4075 37.8699 96.0378L38.8382 95.0696C39.1301 94.7776 39.5817 94.7364 39.9321 94.9543C41.6866 96.0472 43.6335 96.8569 45.7093 97.3335C46.1019 97.4237 46.3756 97.7798 46.3756 98.1824V99.561C46.3756 100.083 46.7995 100.507 47.322 100.507H52.6664C53.1894 100.507 53.6128 100.083 53.6128 99.561V98.1818C53.6128 97.7793 53.8865 97.4227 54.2791 97.333C56.3543 96.8569 58.3013 96.0467 60.0558 94.9538C60.4057 94.7359 60.8577 94.777 61.1492 95.0685L62.118 96.0373C62.4877 96.407 63.0868 96.407 63.4564 96.0373L67.2351 92.2581C67.6048 91.8884 67.6042 91.2894 67.2351 90.9197L66.2668 89.9519C65.9748 89.6599 65.9336 89.2084 66.1521 88.858C67.2455 87.1035 68.0563 85.156 68.5329 83.0808C68.6231 82.6882 68.9792 82.415 69.3817 82.415H70.7582C71.2807 82.4145 71.7041 81.9906 71.7041 81.4681ZM49.9921 93.8646C41.6699 93.8646 34.9328 87.1139 34.9328 78.7917C34.9328 70.482 41.6699 63.7314 49.9921 63.7314C58.3143 63.7314 65.0519 70.482 65.0519 78.7917C65.0519 87.1139 58.3148 93.8646 49.9921 93.8646Z" stroke="#E5D7FF" stroke-width="0.7896" stroke-miterlimit="10"/>
<path d="M91.3888 114.771V111.137C91.3888 110.781 91.1006 110.493 90.7452 110.493H89.8098C89.5357 110.493 89.2937 110.307 89.2324 110.04C88.9082 108.629 88.3568 107.305 87.6133 106.111C87.4651 105.873 87.4932 105.566 87.6914 105.368L88.3495 104.71C88.6008 104.459 88.6008 104.051 88.3495 103.8L85.78 101.23C85.5287 100.979 85.1214 100.979 84.8696 101.23L84.2125 101.887C84.0143 102.086 83.7068 102.114 83.4685 101.965C82.2756 101.221 80.9511 100.669 79.5391 100.345C79.2722 100.283 79.086 100.041 79.086 99.7672V98.8349C79.086 98.4796 78.7978 98.1914 78.4424 98.1914H74.8085C74.4532 98.1914 74.1649 98.4796 74.1649 98.8349V99.7672C74.1649 100.041 73.9787 100.283 73.7118 100.344C72.2999 100.668 70.9753 101.22 69.7813 101.965C69.5431 102.113 69.2361 102.085 69.0374 101.887L68.3814 101.231C68.1301 100.979 67.7222 100.979 67.4709 101.231L64.9019 103.8C64.6507 104.051 64.6507 104.459 64.9019 104.71L65.559 105.368C65.7578 105.566 65.7858 105.873 65.6371 106.111C64.8931 107.305 64.3416 108.629 64.018 110.041C63.9567 110.308 63.7147 110.494 63.4406 110.494H62.5062C62.1509 110.494 61.8627 110.782 61.8627 111.138V114.771C61.8627 115.127 62.1509 115.415 62.5062 115.415H63.4411C63.7147 115.415 63.9572 115.601 64.018 115.868C64.3427 117.279 64.8941 118.603 65.6376 119.796C65.7858 120.035 65.7578 120.342 65.5595 120.54L64.9014 121.198C64.6501 121.45 64.6501 121.858 64.9014 122.109L67.4704 124.678C67.7217 124.93 68.1296 124.93 68.3808 124.678L69.0395 124.02C69.2377 123.821 69.5451 123.793 69.7829 123.942C70.9758 124.685 72.2999 125.235 73.7113 125.559C73.9782 125.62 74.1644 125.862 74.1644 126.137V127.074C74.1644 127.429 74.4527 127.717 74.808 127.717H78.4419C78.7972 127.717 79.0854 127.429 79.0854 127.074V126.137C79.0854 125.863 79.2717 125.62 79.5386 125.559C80.9495 125.235 82.2735 124.685 83.4664 123.942C83.7047 123.793 84.0117 123.821 84.2099 124.02L84.869 124.679C85.1203 124.93 85.5282 124.93 85.7795 124.679L88.349 122.109C88.6003 121.858 88.6003 121.451 88.349 121.199L87.6903 120.541C87.4916 120.343 87.4635 120.035 87.6123 119.797C88.3557 118.604 88.9072 117.28 89.2313 115.869C89.2927 115.602 89.5346 115.415 89.8083 115.415H90.7442C91.1006 115.415 91.3888 115.127 91.3888 114.771ZM76.6252 122.622C71.2859 122.622 66.9632 118.291 66.9632 112.952C66.9632 107.62 71.2859 103.289 76.6252 103.289C81.965 103.289 86.2878 107.62 86.2878 112.952C86.2878 118.291 81.965 122.622 76.6252 122.622Z" fill="#F4EEFE"/>
<path d="M468.026 106.525V99.3991C468.026 98.7025 467.461 98.1373 466.764 98.1373H464.93C464.393 98.1373 463.917 97.7723 463.798 97.2488C463.163 94.4819 462.082 91.8853 460.624 89.5445C460.333 89.078 460.388 88.4753 460.777 88.0867L462.066 86.797C462.559 86.3041 462.559 85.5053 462.066 85.0124L457.028 79.9742C456.535 79.4813 455.736 79.4813 455.243 79.9742L453.955 81.2625C453.566 81.6518 452.964 81.7067 452.497 81.4154C450.156 79.9562 447.559 78.8737 444.792 78.2383C444.269 78.118 443.904 77.6432 443.904 77.1065V75.2781C443.904 74.5815 443.339 74.0163 442.642 74.0163H435.516C434.819 74.0163 434.254 74.5815 434.254 75.2781V77.1065C434.254 77.6432 433.889 78.1187 433.366 78.2383C430.597 78.8737 427.999 79.9562 425.659 81.4154C425.192 81.7067 424.59 81.6518 424.201 81.2625L422.914 79.9756C422.421 79.4827 421.622 79.4827 421.129 79.9756L416.091 85.0138C415.598 85.5067 415.598 86.3055 416.091 86.7984L417.379 88.0867C417.769 88.476 417.824 89.078 417.532 89.5452C416.074 91.886 414.993 94.4833 414.358 97.2502C414.238 97.7737 413.763 98.1387 413.225 98.1387H411.394C410.696 98.1387 410.132 98.7039 410.132 99.4005V106.526C410.132 107.223 410.697 107.788 411.394 107.788H413.226C413.763 107.788 414.238 108.153 414.358 108.676C414.994 111.444 416.076 114.04 417.534 116.38C417.825 116.846 417.769 117.449 417.381 117.838L416.091 119.128C415.598 119.621 415.598 120.42 416.091 120.912L421.129 125.951C421.622 126.444 422.421 126.444 422.914 125.951L424.205 124.66C424.594 124.271 425.196 124.216 425.664 124.507C428.003 125.964 430.599 127.043 433.366 127.679C433.89 127.799 434.255 128.274 434.255 128.811V130.649C434.255 131.345 434.82 131.911 435.517 131.911H442.643C443.34 131.911 443.904 131.345 443.904 130.649V128.81C443.904 128.273 444.269 127.798 444.793 127.678C447.56 127.043 450.156 125.963 452.495 124.506C452.962 124.215 453.564 124.27 453.953 124.659L455.245 125.951C455.738 126.444 456.536 126.444 457.029 125.951L462.068 120.912C462.56 120.419 462.56 119.62 462.068 119.127L460.777 117.837C460.387 117.447 460.332 116.845 460.624 116.378C462.081 114.039 463.162 111.442 463.798 108.675C463.918 108.152 464.393 107.788 464.93 107.788H466.765C467.462 107.787 468.026 107.222 468.026 106.525ZM439.077 123.054C427.981 123.054 418.998 114.053 418.998 102.957C418.998 91.8769 427.981 82.876 439.077 82.876C450.173 82.876 459.157 91.8769 459.157 102.957C459.157 114.053 450.174 123.054 439.077 123.054Z" stroke="#E5D7FF" stroke-miterlimit="10"/>
<path opacity="0.4" d="M69.8778 324.398C71.746 324.398 73.2604 322.884 73.2604 321.015C73.2604 319.147 71.746 317.633 69.8778 317.633C68.0097 317.633 66.4953 319.147 66.4953 321.015C66.4953 322.884 68.0097 324.398 69.8778 324.398Z" fill="#A4AFFF"/>
<path opacity="0.4" d="M105.772 41.1073C107.641 41.1073 109.155 39.5928 109.155 37.7247C109.155 35.8566 107.641 34.3421 105.772 34.3421C103.904 34.3421 102.39 35.8566 102.39 37.7247C102.39 39.5928 103.904 41.1073 105.772 41.1073Z" fill="#A4AFFF"/>
<path opacity="0.4" d="M447.161 153.135C449.029 153.135 450.544 151.621 450.544 149.752C450.544 147.884 449.029 146.37 447.161 146.37C445.293 146.37 443.779 147.884 443.779 149.752C443.779 151.621 445.293 153.135 447.161 153.135Z" fill="#A4AFFF"/>
<path opacity="0.4" d="M335.654 57.5586C337.522 57.5586 339.036 56.0442 339.036 54.1761C339.036 52.308 337.522 50.7935 335.654 50.7935C333.786 50.7935 332.271 52.308 332.271 54.1761C332.271 56.0442 333.786 57.5586 335.654 57.5586Z" fill="#A4AFFF"/>
<path d="M264.561 38.1948C264.561 39.5107 263.494 40.5774 262.179 40.5774C260.863 40.5774 259.796 39.5107 259.796 38.1948C259.796 36.879 260.863 35.8123 262.179 35.8123C263.494 35.8123 264.561 36.879 264.561 38.1948Z" stroke="#E5D7FF" stroke-width="2"/>
<path opacity="0.4" d="M412.091 141.928C413.262 141.928 414.212 140.979 414.212 139.807C414.212 138.635 413.262 137.685 412.091 137.685C410.919 137.685 409.969 138.635 409.969 139.807C409.969 140.979 410.919 141.928 412.091 141.928Z" fill="#A4AFFF"/>
<path opacity="0.4" d="M136.977 61.1395C138.149 61.1395 139.099 60.1895 139.099 59.0176C139.099 57.8458 138.149 56.8958 136.977 56.8958C135.805 56.8958 134.855 57.8458 134.855 59.0176C134.855 60.1895 135.805 61.1395 136.977 61.1395Z" fill="#A4AFFF"/>
<path opacity="0.4" d="M86.0149 87.7971C87.1867 87.7971 88.1367 86.8471 88.1367 85.6752C88.1367 84.5034 87.1867 83.5534 86.0149 83.5534C84.843 83.5534 83.893 84.5034 83.893 85.6752C83.893 86.8471 84.843 87.7971 86.0149 87.7971Z" fill="#A4AFFF"/>
<path opacity="0.4" d="M71.1296 147.293C72.3014 147.293 73.2514 146.343 73.2514 145.171C73.2514 143.999 72.3014 143.049 71.1296 143.049C69.9577 143.049 69.0078 143.999 69.0078 145.171C69.0078 146.343 69.9577 147.293 71.1296 147.293Z" fill="#A4AFFF"/>
<path opacity="0.4" d="M142.018 313.615C143.886 313.615 145.4 312.101 145.4 310.233C145.4 308.365 143.886 306.85 142.018 306.85C140.149 306.85 138.635 308.365 138.635 310.233C138.635 312.101 140.149 313.615 142.018 313.615Z" fill="#A4AFFF"/>
<path opacity="0.4" d="M353.543 310.129C355.411 310.129 356.925 308.614 356.925 306.746C356.925 304.878 355.411 303.364 353.543 303.364C351.675 303.364 350.16 304.878 350.16 306.746C350.16 308.614 351.675 310.129 353.543 310.129Z" fill="#A4AFFF"/>
<path opacity="0.4" d="M80.0644 252.703C81.9325 252.703 83.4469 251.188 83.4469 249.32C83.4469 247.452 81.9325 245.938 80.0644 245.938C78.1962 245.938 76.6818 247.452 76.6818 249.32C76.6818 251.188 78.1962 252.703 80.0644 252.703Z" fill="#A4AFFF"/>
<path opacity="0.4" d="M436.306 262.907C438.806 262.907 440.833 260.88 440.833 258.38C440.833 255.88 438.806 253.854 436.306 253.854C433.806 253.854 431.78 255.88 431.78 258.38C431.78 260.88 433.806 262.907 436.306 262.907Z" fill="#A4AFFF"/>
<path d="M79.7586 182.16C79.7586 184.107 78.1797 185.686 76.2322 185.686C74.2846 185.686 72.7058 184.107 72.7058 182.16C72.7058 180.212 74.2846 178.633 76.2322 178.633C78.1797 178.633 79.7586 180.212 79.7586 182.16Z" stroke="#E5D7FF" stroke-width="2"/>
<path d="M442.423 195.186L442.788 188.224L448.638 192.023L442.423 195.186Z" stroke="#E5D7FF" stroke-width="2"/>
<path d="M306.435 298.153L312.948 304.24L304.422 306.838L306.435 298.153Z" fill="#E5D7FF"/>
<path d="M66.3493 233.102L60.3302 229.627L66.3493 226.146V233.102Z" stroke="#E5D7FF" stroke-width="2"/>
<path d="M388.522 44.0146L396.857 50.4124L387.153 54.4355L388.522 44.0146Z" fill="#E5D7FF"/>
<path opacity="0.5" d="M204.009 288.451L200.98 279.496L194.053 281.845C193.186 280.537 192.158 279.376 190.997 278.362L194.24 271.796L185.766 267.605L182.523 274.171C181.014 273.878 179.466 273.771 177.905 273.864L175.556 266.938L166.601 269.967L168.95 276.894C167.655 277.761 166.481 278.789 165.467 279.95L158.901 276.707L154.71 285.182L161.276 288.425C160.982 289.933 160.876 291.481 160.969 293.042L154.043 295.391L157.072 304.346L163.999 301.997C164.866 303.305 165.894 304.466 167.055 305.48L163.812 312.047L172.286 316.237L175.529 309.671C177.037 309.965 178.586 310.071 180.147 309.978L182.496 316.904L191.451 313.875L189.102 306.948C190.396 306.081 191.571 305.053 192.585 303.892L199.151 307.135L203.342 298.661L196.776 295.418C197.069 293.91 197.176 292.362 197.083 290.8L204.009 288.451ZM181.482 299.155C177.491 300.502 173.154 298.367 171.806 294.377C170.458 290.386 172.593 286.049 176.584 284.701C180.574 283.353 184.911 285.488 186.259 289.479C187.607 293.469 185.472 297.793 181.482 299.155Z" fill="#F4EDFF"/>
<path d="M433.727 225.865H416.143C415.078 225.865 414.214 225.28 414.214 224.558C414.214 223.835 415.078 223.249 416.143 223.249H433.727C434.792 223.249 435.654 223.835 435.654 224.558C435.654 225.279 434.792 225.865 433.727 225.865Z" fill="#D5BFFE"/>
<path d="M451.437 231.669H416.144C415.079 231.669 414.215 231.083 414.215 230.361C414.215 229.638 415.079 229.053 416.144 229.053H451.437C452.502 229.053 453.366 229.638 453.366 230.361C453.365 231.083 452.502 231.669 451.437 231.669Z" fill="#D5BFFE"/>
<path d="M420.312 237.473H416.144C415.079 237.473 414.215 236.887 414.215 236.165C414.215 235.443 415.079 234.857 416.144 234.857H420.312C421.377 234.857 422.241 235.443 422.241 236.165C422.239 236.887 421.377 237.473 420.312 237.473Z" fill="#D5BFFE"/>
<path d="M451.437 237.473H426.861C425.796 237.473 424.934 236.887 424.934 236.165C424.934 235.443 425.796 234.857 426.861 234.857H451.437C452.502 234.857 453.365 235.443 453.365 236.165C453.364 236.887 452.502 237.473 451.437 237.473Z" fill="#D5BFFE"/>
<path d="M451.438 225.865H440.781C439.716 225.865 438.853 225.28 438.853 224.558C438.853 223.835 439.716 223.249 440.781 223.249H451.438C452.503 223.249 453.367 223.835 453.367 224.558C453.366 225.279 452.503 225.865 451.438 225.865Z" fill="#D5BFFE"/>
<path d="M400.056 73.6674V252.093H93.6563V73.6674C93.6563 69.3026 97.2142 65.7495 101.58 65.7495H392.13C396.501 65.7495 400.056 69.3026 400.056 73.6674Z" fill="#F8F8F8" stroke="#4A81CA"/>
<path d="M93.8577 252.433H93.3577V252.933V278.804C93.3577 284.06 97.5912 288.322 102.817 288.322H391.248C396.476 288.322 400.71 284.06 400.71 278.804V252.933V252.433H400.21H93.8577Z" fill="#DAE3EB" stroke="#29306F" stroke-miterlimit="10"/>
<path d="M246.857 276.171C251.292 276.171 254.887 272.576 254.887 268.141C254.887 263.707 251.292 260.111 246.857 260.111C242.422 260.111 238.827 263.707 238.827 268.141C238.827 272.576 242.422 276.171 246.857 276.171Z" fill="white"/>
<path d="M299.704 326.344L299.688 326.336C299.623 326.304 299.527 326.258 299.403 326.199C299.156 326.081 298.8 325.914 298.363 325.717C297.489 325.322 296.299 324.808 295.027 324.33C295.027 324.33 295.026 324.33 295.026 324.329L299.704 326.344ZM299.704 326.344C299.467 326.376 299.117 326.397 298.614 326.388V326.388H298.605H195.135C194.449 326.352 194.053 326.275 193.84 326.201C193.86 326.184 193.88 326.167 193.902 326.15C193.958 326.107 194.012 326.071 194.052 326.045C194.062 326.038 194.072 326.033 194.079 326.028L194.132 326.009L194.41 325.909C194.651 325.822 194.999 325.697 195.43 325.54C196.29 325.226 197.478 324.79 198.786 324.297M299.704 326.344L198.786 324.297M198.786 324.297C201.504 323.276 204.772 321.993 206.714 321.058C208.45 320.228 209.484 319.497 210.215 318.197C210.915 316.951 211.32 315.203 211.95 312.449L211.95 312.449C213.311 306.492 214.58 294.126 215.131 288.323H278.592C279.141 294.126 280.412 306.492 281.772 312.449L281.772 312.449C282.401 315.204 282.807 316.951 283.508 318.197C284.239 319.498 285.273 320.229 287.009 321.059L198.786 324.297ZM300.003 326.573C300.003 326.574 300.002 326.573 300.001 326.571C300.002 326.572 300.003 326.573 300.003 326.573Z" fill="#DAE3EB" stroke="#4A81CA"/>
<path d="M215.13 288.322H278.592C278.736 289.565 279.109 292.319 279.491 295.146L279.493 295.163L279.494 295.168C279.876 297.994 280.268 300.897 280.46 302.485L214.918 292.615C215.023 291.528 215.052 290.761 215.068 290.088C215.071 289.968 215.074 289.851 215.076 289.736C215.086 289.26 215.096 288.823 215.13 288.322Z" fill="#F8F8F8" stroke="#4A81CA"/>
<path d="M386.266 79.6805H107.44V236.695H386.266V79.6805Z" fill="#ECF4FB"/>
<path d="M386.266 79.6805H107.44V95.2548H386.266V79.6805Z" fill="#E5D7FF"/>
<path d="M381.015 98.5863H322.399V174.843H381.015V98.5863Z" fill="white"/>
<path d="M319.748 98.6831H108.165V236.229H319.748V98.6831Z" fill="#F4EBF7"/>
<path d="M257.703 83.7287H128.017V91.2062H257.703V83.7287Z" fill="white"/>
<path d="M122.862 83.7287H114.864V91.2062H122.862V83.7287Z" fill="white"/>
<path d="M363.306 90.6471C363.306 90.6471 363.306 90.3585 363.306 90.2094C363.306 88.756 362.129 87.5777 360.674 87.5777C360.194 87.5777 358.522 87.5777 358.042 87.5777C356.588 87.5777 355.41 88.7569 355.41 90.2094C355.41 90.3585 355.41 90.6471 355.41 90.6471H363.306Z" fill="white"/>
<path d="M361.112 84.5048C361.112 85.4747 360.329 86.2602 359.36 86.2602C358.388 86.2602 357.604 85.4747 357.604 84.5048C357.604 83.5358 358.388 82.7522 359.36 82.7522C360.329 82.7522 361.112 83.5367 361.112 84.5048Z" fill="white"/>
<path d="M378.667 83.2071H371.52C371.151 83.2071 370.85 83.5062 370.85 83.8761V89.4596C370.85 89.8294 371.151 90.1304 371.52 90.1304H371.966V91.6938L373.53 90.1304H378.668C379.037 90.1304 379.338 89.8294 379.338 89.4596V83.8761C379.337 83.5062 379.036 83.2071 378.667 83.2071Z" fill="white"/>
<path d="M381.015 177.941H322.399V232.725H381.015V177.941Z" fill="white"/>
<path d="M381.015 208.515H322.399V232.96H381.015V208.515Z" fill="#CBDDF2"/>
<path d="M355.754 112.934H341.752V116.174H355.754V112.934Z" fill="#E5D7FF"/>
<path d="M340.35 102.436H326.348V105.678H340.35V102.436Z" fill="#E5D7FF"/>
<path d="M340.35 167.085H326.348V170.327H340.35V167.085Z" fill="#AFD0EE"/>
<path d="M359.835 102.436H355.054V105.678H359.835V102.436Z" fill="#E5D7FF"/>
<path d="M367.192 102.436H362.411V105.678H367.192V102.436Z" fill="#E5D7FF"/>
<path d="M340.35 181.79H326.348V185.033H340.35V181.79Z" fill="#AFD0EE"/>
<path d="M359.835 181.79H355.054V185.033H359.835V181.79Z" fill="#AFD0EE"/>
<path d="M367.192 181.79H362.411V185.033H367.192V181.79Z" fill="#AFD0EE"/>
<path d="M366.493 119.003H341.752V122.243H366.493V119.003Z" fill="#E5D7FF"/>
<path d="M332.182 123.073C335.339 123.073 337.899 120.513 337.899 117.355C337.899 114.198 335.339 111.638 332.182 111.638C329.024 111.638 326.464 114.198 326.464 117.355C326.464 120.513 329.024 123.073 332.182 123.073Z" fill="#E5D7FF"/>
<path d="M355.754 131.606H341.752V134.846H355.754V131.606Z" fill="#E5D7FF"/>
<path d="M366.493 137.674H341.752V140.916H366.493V137.674Z" fill="#E5D7FF"/>
<path d="M332.182 141.745C335.339 141.745 337.899 139.185 337.899 136.027C337.899 132.87 335.339 130.31 332.182 130.31C329.024 130.31 326.464 132.87 326.464 136.027C326.464 139.185 329.024 141.745 332.182 141.745Z" fill="#E5D7FF"/>
<path d="M355.754 150.278H341.752V153.519H355.754V150.278Z" fill="#E5D7FF"/>
<path d="M366.493 156.345H341.752V159.587H366.493V156.345Z" fill="#E5D7FF"/>
<path d="M355.754 193.688H341.752V196.929H355.754V193.688Z" fill="#AFD0EE"/>
<path d="M366.493 199.756H341.752V202.998H366.493V199.756Z" fill="#AFD0EE"/>
<path d="M332.182 160.416C335.339 160.416 337.899 157.857 337.899 154.699C337.899 151.541 335.339 148.982 332.182 148.982C329.024 148.982 326.464 151.541 326.464 154.699C326.464 157.857 329.024 160.416 332.182 160.416Z" fill="#E5D7FF"/>
<path d="M337.784 191.796H326.582V202.998H337.784V191.796Z" fill="#AFD0EE"/>
<g filter="url(#filter1_d_1_1147)">
<path d="M406.753 166.318H286.06C281.641 166.318 278.06 169.9 278.06 174.318V205.92C278.06 210.338 281.641 213.92 286.06 213.92H406.753C411.171 213.92 414.753 210.338 414.753 205.92V174.318C414.753 169.9 411.171 166.318 406.753 166.318Z" fill="white"/>
</g>
<path d="M396.706 174.406H343.703V177.995H396.706V174.406Z" fill="#E5D7FF"/>
<path d="M404.163 182.091H343.703V184.776H404.163V182.091Z" fill="#E5D7FF"/>
<path d="M396.237 188.367H343.459V191.074H396.237V188.367Z" fill="#E5D7FF"/>
<path d="M402.224 194.435H343.459V197.122H402.224V194.435Z" fill="#E5D7FF"/>
<path d="M356.588 200.974H343.459V203.66H356.588V200.974Z" fill="#E5D7FF"/>
<path d="M338.736 174.597H285.397V206.128H338.736V174.597Z" fill="#E5D7FF"/>
<path d="M285 175L338.339 206.531" stroke="white" stroke-width="0.3313" stroke-miterlimit="10"/>
<path d="M338.339 175L285 206.531" stroke="white" stroke-width="0.3313" stroke-miterlimit="10"/>
<path d="M219.809 103.871H114.693V224.615H219.809V103.871Z" fill="white"/>
<path d="M214.126 110.398H120.373V158.324H214.126V110.398Z" fill="#EFF3F9"/>
<path d="M214.125 164.004H120.372V217.985H214.125V164.004Z" fill="#EFF3F9"/>
<path d="M214.126 217.985L157.4 217.778L184.769 191.469L214.126 217.985Z" fill="#AFD0EE"/>
<path d="M204.655 217.985L120.466 217.681L161.087 178.631L204.655 217.985Z" fill="#E5D7FF"/>
<path d="M313.56 103.871H226.435V158.325H313.56V103.871Z" fill="white"/>
<path d="M299.693 114.542H234.185V118.975H299.693V114.542Z" fill="#E5D7FF"/>
<path d="M308.908 124.04H234.185V127.359H308.908V124.04Z" fill="#E5D7FF"/>
<path d="M299.111 131.797H233.876V135.143H299.111V131.797Z" fill="#E5D7FF"/>
<path d="M306.51 139.296H233.876V142.619H306.51V139.296Z" fill="#E5D7FF"/>
<path d="M250.106 147.38H233.876V150.698H250.106V147.38Z" fill="#E5D7FF"/>
<g filter="url(#filter2_d_1_1147)">
<path d="M401.852 300.818C413.743 300.818 423.382 291.179 423.382 279.288C423.382 267.397 413.743 257.758 401.852 257.758C389.962 257.758 380.322 267.397 380.322 279.288C380.322 291.179 389.962 300.818 401.852 300.818Z" fill="white"/>
</g>
<path d="M411.807 275.57C411.579 274.039 410.67 272.694 409.338 271.907L409.298 271.882C407.38 270.75 404.951 270.98 403.281 272.454L401.938 273.638L400.596 272.454C398.925 270.98 396.496 270.75 394.578 271.882L394.539 271.907C393.206 272.694 392.299 274.039 392.069 275.57C391.836 277.121 392.325 278.694 393.395 279.841L401.938 288.995L410.482 279.841C411.553 278.694 412.04 277.121 411.807 275.57Z" fill="#4A81CA"/>
<g filter="url(#filter3_d_1_1147)">
<path d="M113.161 110.746H82.0768C77.6585 110.746 74.0768 114.327 74.0768 118.746V134.146C74.0768 138.564 77.6585 142.146 82.0768 142.146H113.161C117.58 142.146 121.161 138.564 121.161 134.146V118.746C121.161 114.327 117.58 110.746 113.161 110.746Z" fill="white"/>
</g>
<path d="M91.3089 119.225L103.332 126.433L91.3089 133.641V119.225Z" fill="#F27190"/>
<path opacity="0.3" d="M157.407 32.4219L152.934 29.7801L150.896 33.2436C150.064 33.0147 149.221 32.9003 148.379 32.8899L147.37 29L142.336 30.3001L143.345 34.19C142.617 34.6061 141.93 35.1157 141.316 35.719L137.853 33.6804L135.211 38.1424L138.675 40.1809C138.446 41.013 138.331 41.8555 138.321 42.6979L134.431 43.7068L135.731 48.7408L139.621 47.732C140.037 48.46 140.547 49.1465 141.15 49.7601L139.112 53.2236L143.584 55.8654L145.622 52.4019C146.455 52.6308 147.297 52.7452 148.139 52.7556L149.138 56.6455L154.172 55.3454L153.163 51.4555C153.891 51.0394 154.578 50.5298 155.191 49.9265L158.655 51.9651L161.297 47.4927L157.833 45.4542C158.062 44.6221 158.176 43.7796 158.187 42.9372L162.077 41.9283L160.777 36.8943L156.887 37.9031C156.471 37.1751 155.961 36.4886 155.358 35.875L157.407 32.4219ZM151.863 44.9549C150.688 46.9519 148.119 47.6072 146.122 46.4319C144.125 45.2566 143.469 42.6875 144.645 40.6906C145.82 38.6936 148.389 38.0384 150.386 39.2137C152.373 40.3889 153.038 42.958 151.863 44.9549Z" fill="#E5D7FF"/>
<g filter="url(#filter4_d_1_1147)">
<path d="M312.577 39.3609H279.812C275.394 39.3609 271.812 42.9427 271.812 47.3609V80.1262C271.812 84.5445 275.394 88.1262 279.812 88.1262H312.577C316.996 88.1262 320.577 84.5445 320.577 80.1262V47.3609C320.577 42.9427 316.996 39.3609 312.577 39.3609Z" fill="white"/>
</g>
<path d="M300.199 57.5282L294.071 67.5076L290.207 61.1095L281.251 75.6933H289.045H299.013H311.171L300.199 57.5282Z" fill="#E5D7FF"/>
<path d="M290.173 58.3909C291.995 58.3909 293.471 56.9142 293.471 55.0926C293.471 53.2709 291.995 51.7942 290.173 51.7942C288.351 51.7942 286.875 53.2709 286.875 55.0926C286.875 56.9142 288.351 58.3909 290.173 58.3909Z" fill="#E5D7FF"/>
<g filter="url(#filter5_d_1_1147)">
<path d="M180.087 262.357H60.9074C56.4891 262.357 52.9074 265.939 52.9074 270.357V300.297C52.9074 304.716 56.4891 308.297 60.9074 308.297H180.087C184.505 308.297 188.087 304.716 188.087 300.297V270.357C188.087 265.939 184.505 262.357 180.087 262.357Z" fill="white"/>
</g>
<path d="M164.497 275.202H76.3605V277.386H164.497V275.202Z" fill="#E5D7FF"/>
<path d="M164.497 283.957H76.3606V286.151H164.497V283.957Z" fill="#E5D7FF"/>
<path d="M115.385 293.167H76.3606V295.361H115.385V293.167Z" fill="#E5D7FF"/>
<g filter="url(#filter6_d_1_1147)">
<path d="M120.04 186.664H50.2772C45.8589 186.664 42.2772 190.246 42.2772 194.664V231.307C42.2772 235.725 45.8589 239.307 50.2772 239.307H120.04C124.458 239.307 128.04 235.725 128.04 231.307V194.664C128.04 190.246 124.458 186.664 120.04 186.664Z" fill="#E5D7FF"/>
</g>
<path opacity="0.88" d="M116.655 183.258H46.8924C42.4741 183.258 38.8924 186.84 38.8924 191.258V227.901C38.8924 232.319 42.4741 235.901 46.8924 235.901H116.655C121.074 235.901 124.655 232.319 124.655 227.901V191.258C124.655 186.84 121.074 183.258 116.655 183.258Z" fill="white"/>
<path d="M116.205 198.584H57.7088V200.041H116.205V198.584Z" fill="#E5D7FF"/>
<path d="M116.205 204.395H57.709V205.851H116.205V204.395Z" fill="#E5D7FF"/>
<path d="M116.205 210.205H57.709V211.662H116.205V210.205Z" fill="#E5D7FF"/>
<path d="M83.609 216.019H57.709V217.476H83.609V216.019Z" fill="#E5D7FF"/>
<g filter="url(#filter7_d_1_1147)">
<path d="M215.715 40.8853H178.827C174.409 40.8853 170.827 44.467 170.827 48.8853V65.569C170.827 69.9873 174.409 73.569 178.827 73.569H215.715C220.134 73.569 223.715 69.9873 223.715 65.569V48.8853C223.715 44.467 220.134 40.8853 215.715 40.8853Z" fill="#5D449B"/>
</g>
<path d="M181.578 58.3464V56.0331L190.97 51.9303V54.3024L183.91 57.1998L190.97 60.057V62.4507L181.578 58.3464Z" fill="white"/>
<path d="M198.967 48.9711H202.066L195.127 65.4069H192.029L198.967 48.9711Z" fill="white"/>
<path d="M203.132 60.057L210.194 57.1998L203.132 54.3024V51.9303L212.527 56.0331V58.3464L203.132 62.4492V60.057Z" fill="white"/>
<g filter="url(#filter8_d_1_1147)">
<path d="M431.746 115.452H364.988C357.855 115.452 352.072 109.669 352.072 102.535V102.53C352.072 95.397 357.855 89.6136 364.988 89.6136H431.746C438.879 89.6136 444.662 95.3961 444.662 102.53V102.535C444.661 109.669 438.879 115.452 431.746 115.452Z" fill="white"/>
</g>
<path d="M430.894 110.431H366.028C361.758 110.431 358.296 106.969 358.296 102.7C358.296 98.4311 361.757 94.9695 366.028 94.9695H430.894C435.164 94.9695 438.626 98.4311 438.626 102.7C438.626 106.969 435.165 110.431 430.894 110.431Z" fill="white" stroke="#E5D7FF"/>
<path d="M431.935 105.612L429.65 103.504C429.887 103.066 430.011 102.58 430.011 102.085C430.011 100.427 428.663 99.0791 427.005 99.0791C425.348 99.0791 424 100.427 424 102.085C424 103.743 425.348 105.091 427.005 105.091C427.58 105.091 428.135 104.924 428.625 104.605L430.914 106.717C431.053 106.846 431.234 106.917 431.425 106.917C431.635 106.917 431.837 106.829 431.977 106.675C432.114 106.526 432.185 106.335 432.177 106.133C432.169 105.933 432.083 105.748 431.935 105.612ZM428.771 102.085C428.771 103.059 427.979 103.851 427.005 103.851C426.032 103.851 425.24 103.059 425.24 102.085C425.24 101.112 426.031 100.32 427.005 100.32C427.979 100.32 428.771 101.112 428.771 102.085Z" fill="#F27190"/>
<g style="mix-blend-mode:luminosity">
<path d="M167.079 120.22V129.124L164.386 130.547L161.694 129.124V120.22C158.5 121.333 156.208 124.369 156.208 127.943C156.208 131.429 158.392 134.405 161.465 135.581V145.249C162.406 145.459 163.382 145.58 164.386 145.58C165.391 145.58 166.366 145.459 167.308 145.249V135.581C170.381 134.405 172.564 131.429 172.564 127.943C172.564 124.369 170.272 121.333 167.079 120.22Z" fill="#E5D7FF"/>
</g>
<g filter="url(#filter9_d_1_1147)">
<path d="M39 201C48.9411 201 57 192.941 57 183C57 173.059 48.9411 165 39 165C29.0589 165 21 173.059 21 183C21 192.941 29.0589 201 39 201Z" fill="white"/>
</g>
<path d="M39.0005 198.65C47.6434 198.65 54.6498 191.643 54.6498 183C54.6498 174.357 47.6434 167.351 39.0005 167.351C30.3577 167.351 23.3512 174.357 23.3512 183C23.3512 191.643 30.3577 198.65 39.0005 198.65Z" fill="#486284"/>
<path d="M38.9993 184.424C39.7859 184.424 40.4236 183.787 40.4236 183C40.4236 182.214 39.7859 181.576 38.9993 181.576C38.2127 181.576 37.575 182.214 37.575 183C37.575 183.787 38.2127 184.424 38.9993 184.424Z" fill="white"/>
<path d="M38.8451 182.72C38.6297 182.839 38.3589 182.761 38.2393 182.547L33.6364 174.245C33.5174 174.03 33.5949 173.759 33.8098 173.639C34.0252 173.52 34.2965 173.598 34.4156 173.813L39.0184 182.114C39.138 182.329 39.0605 182.601 38.8451 182.72Z" fill="white"/>
<path d="M39.2275 183.226C39.4014 183.052 39.6838 183.052 39.8582 183.226L43.8392 187.208C44.0131 187.382 44.0131 187.664 43.8392 187.838C43.6659 188.012 43.3835 188.012 43.2091 187.838L39.2275 183.856C39.0542 183.683 39.0542 183.4 39.2275 183.226Z" fill="white"/>
<path d="M39.0952 170.474V168.674" stroke="white" stroke-width="2" stroke-miterlimit="10" stroke-linecap="round"/>
<path d="M51.5264 183.096H53.3261" stroke="white" stroke-width="2" stroke-miterlimit="10" stroke-linecap="round"/>
<path d="M38.9048 195.526V197.326" stroke="white" stroke-width="2" stroke-miterlimit="10" stroke-linecap="round"/>
<path d="M26.474 182.904H24.6743" stroke="white" stroke-width="2" stroke-miterlimit="10" stroke-linecap="round"/>
<defs>
<filter id="filter0_d_1_1147" x="28.5159" y="0.40918" width="438.908" height="353.336" filterUnits="userSpaceOnUse" color-interpolation-filters="sRGB">
<feFlood flood-opacity="0" result="BackgroundImageFix"/>
<feColorMatrix in="SourceAlpha" type="matrix" values="0 0 0 0 0 0 0 0 0 0 0 0 0 0 0 0 0 0 127 0" result="hardAlpha"/>
<feOffset dx="-1" dy="1"/>
<feGaussianBlur stdDeviation="35"/>
<feComposite in2="hardAlpha" operator="out"/>
<feColorMatrix type="matrix" values="0 0 0 0 0 0 0 0 0 0 0 0 0 0 0 0 0 0 0.16 0"/>
<feBlend mode="normal" in2="BackgroundImageFix" result="effect1_dropShadow_1_1147"/>
<feBlend mode="normal" in="SourceGraphic" in2="effect1_dropShadow_1_1147" result="shape"/>
</filter>
<filter id="filter1_d_1_1147" x="258.06" y="140.318" width="196.693" height="107.602" filterUnits="userSpaceOnUse" color-interpolation-filters="sRGB">
<feFlood flood-opacity="0" result="BackgroundImageFix"/>
<feColorMatrix in="SourceAlpha" type="matrix" values="0 0 0 0 0 0 0 0 0 0 0 0 0 0 0 0 0 0 127 0" result="hardAlpha"/>
<feOffset dx="10" dy="4"/>
<feGaussianBlur stdDeviation="15"/>
<feComposite in2="hardAlpha" operator="out"/>
<feColorMatrix type="matrix" values="0 0 0 0 0 0 0 0 0 0 0 0 0 0 0 0 0 0 0.17 0"/>
<feBlend mode="normal" in2="BackgroundImageFix" result="effect1_dropShadow_1_1147"/>
<feBlend mode="normal" in="SourceGraphic" in2="effect1_dropShadow_1_1147" result="shape"/>
</filter>
<filter id="filter2_d_1_1147" x="360.322" y="231.758" width="103.06" height="103.06" filterUnits="userSpaceOnUse" color-interpolation-filters="sRGB">
<feFlood flood-opacity="0" result="BackgroundImageFix"/>
<feColorMatrix in="SourceAlpha" type="matrix" values="0 0 0 0 0 0 0 0 0 0 0 0 0 0 0 0 0 0 127 0" result="hardAlpha"/>
<feOffset dx="10" dy="4"/>
<feGaussianBlur stdDeviation="15"/>
<feComposite in2="hardAlpha" operator="out"/>
<feColorMatrix type="matrix" values="0 0 0 0 0.470588 0 0 0 0 0.470588 0 0 0 0 0.470588 0 0 0 0.17 0"/>
<feBlend mode="normal" in2="BackgroundImageFix" result="effect1_dropShadow_1_1147"/>
<feBlend mode="normal" in="SourceGraphic" in2="effect1_dropShadow_1_1147" result="shape"/>
</filter>
<filter id="filter3_d_1_1147" x="64.0768" y="100.746" width="87.0845" height="71.4001" filterUnits="userSpaceOnUse" color-interpolation-filters="sRGB">
<feFlood flood-opacity="0" result="BackgroundImageFix"/>
<feColorMatrix in="SourceAlpha" type="matrix" values="0 0 0 0 0 0 0 0 0 0 0 0 0 0 0 0 0 0 127 0" result="hardAlpha"/>
<feOffset dx="10" dy="10"/>
<feGaussianBlur stdDeviation="10"/>
<feComposite in2="hardAlpha" operator="out"/>
<feColorMatrix type="matrix" values="0 0 0 0 0.470588 0 0 0 0 0.470588 0 0 0 0 0.470588 0 0 0 0.09 0"/>
<feBlend mode="normal" in2="BackgroundImageFix" result="effect1_dropShadow_1_1147"/>
<feBlend mode="normal" in="SourceGraphic" in2="effect1_dropShadow_1_1147" result="shape"/>
</filter>
<filter id="filter4_d_1_1147" x="251.812" y="13.3609" width="108.765" height="108.765" filterUnits="userSpaceOnUse" color-interpolation-filters="sRGB">
<feFlood flood-opacity="0" result="BackgroundImageFix"/>
<feColorMatrix in="SourceAlpha" type="matrix" values="0 0 0 0 0 0 0 0 0 0 0 0 0 0 0 0 0 0 127 0" result="hardAlpha"/>
<feOffset dx="10" dy="4"/>
<feGaussianBlur stdDeviation="15"/>
<feComposite in2="hardAlpha" operator="out"/>
<feColorMatrix type="matrix" values="0 0 0 0 0 0 0 0 0 0 0 0 0 0 0 0 0 0 0.17 0"/>
<feBlend mode="normal" in2="BackgroundImageFix" result="effect1_dropShadow_1_1147"/>
<feBlend mode="normal" in="SourceGraphic" in2="effect1_dropShadow_1_1147" result="shape"/>
</filter>
<filter id="filter5_d_1_1147" x="22.9074" y="232.357" width="195.179" height="105.941" filterUnits="userSpaceOnUse" color-interpolation-filters="sRGB">
<feFlood flood-opacity="0" result="BackgroundImageFix"/>
<feColorMatrix in="SourceAlpha" type="matrix" values="0 0 0 0 0 0 0 0 0 0 0 0 0 0 0 0 0 0 127 0" result="hardAlpha"/>
<feOffset/>
<feGaussianBlur stdDeviation="15"/>
<feComposite in2="hardAlpha" operator="out"/>
<feColorMatrix type="matrix" values="0 0 0 0 0 0 0 0 0 0 0 0 0 0 0 0 0 0 0.09 0"/>
<feBlend mode="normal" in2="BackgroundImageFix" result="effect1_dropShadow_1_1147"/>
<feBlend mode="normal" in="SourceGraphic" in2="effect1_dropShadow_1_1147" result="shape"/>
</filter>
<filter id="filter6_d_1_1147" x="0.277161" y="150.664" width="165.763" height="132.642" filterUnits="userSpaceOnUse" color-interpolation-filters="sRGB">
<feFlood flood-opacity="0" result="BackgroundImageFix"/>
<feColorMatrix in="SourceAlpha" type="matrix" values="0 0 0 0 0 0 0 0 0 0 0 0 0 0 0 0 0 0 127 0" result="hardAlpha"/>
<feOffset dx="-2" dy="4"/>
<feGaussianBlur stdDeviation="20"/>
<feComposite in2="hardAlpha" operator="out"/>
<feColorMatrix type="matrix" values="0 0 0 0 0 0 0 0 0 0 0 0 0 0 0 0 0 0 0.2 0"/>
<feBlend mode="normal" in2="BackgroundImageFix" result="effect1_dropShadow_1_1147"/>
<feBlend mode="normal" in="SourceGraphic" in2="effect1_dropShadow_1_1147" result="shape"/>
</filter>
<filter id="filter7_d_1_1147" x="160.827" y="30.8853" width="92.8882" height="72.6837" filterUnits="userSpaceOnUse" color-interpolation-filters="sRGB">
<feFlood flood-opacity="0" result="BackgroundImageFix"/>
<feColorMatrix in="SourceAlpha" type="matrix" values="0 0 0 0 0 0 0 0 0 0 0 0 0 0 0 0 0 0 127 0" result="hardAlpha"/>
<feOffset dx="10" dy="10"/>
<feGaussianBlur stdDeviation="10"/>
<feComposite in2="hardAlpha" operator="out"/>
<feColorMatrix type="matrix" values="0 0 0 0 0 0 0 0 0 0 0 0 0 0 0 0 0 0 0.09 0"/>
<feBlend mode="normal" in2="BackgroundImageFix" result="effect1_dropShadow_1_1147"/>
<feBlend mode="normal" in="SourceGraphic" in2="effect1_dropShadow_1_1147" result="shape"/>
</filter>
<filter id="filter8_d_1_1147" x="332.072" y="63.6136" width="152.59" height="85.838" filterUnits="userSpaceOnUse" color-interpolation-filters="sRGB">
<feFlood flood-opacity="0" result="BackgroundImageFix"/>
<feColorMatrix in="SourceAlpha" type="matrix" values="0 0 0 0 0 0 0 0 0 0 0 0 0 0 0 0 0 0 127 0" result="hardAlpha"/>
<feOffset dx="10" dy="4"/>
<feGaussianBlur stdDeviation="15"/>
<feComposite in2="hardAlpha" operator="out"/>
<feColorMatrix type="matrix" values="0 0 0 0 0 0 0 0 0 0 0 0 0 0 0 0 0 0 0.17 0"/>
<feBlend mode="normal" in2="BackgroundImageFix" result="effect1_dropShadow_1_1147"/>
<feBlend mode="normal" in="SourceGraphic" in2="effect1_dropShadow_1_1147" result="shape"/>
</filter>
<filter id="filter9_d_1_1147" x="1" y="139" width="96" height="96" filterUnits="userSpaceOnUse" color-interpolation-filters="sRGB">
<feFlood flood-opacity="0" result="BackgroundImageFix"/>
<feColorMatrix in="SourceAlpha" type="matrix" values="0 0 0 0 0 0 0 0 0 0 0 0 0 0 0 0 0 0 127 0" result="hardAlpha"/>
<feOffset dx="10" dy="4"/>
<feGaussianBlur stdDeviation="15"/>
<feComposite in2="hardAlpha" operator="out"/>
<feColorMatrix type="matrix" values="0 0 0 0 0 0 0 0 0 0 0 0 0 0 0 0 0 0 0.17 0"/>
<feBlend mode="normal" in2="BackgroundImageFix" result="effect1_dropShadow_1_1147"/>
<feBlend mode="normal" in="SourceGraphic" in2="effect1_dropShadow_1_1147" result="shape"/>
</filter>
</defs>
</svg>
