<svg width="186" height="43" viewBox="0 0 186 43" fill="none" xmlns="http://www.w3.org/2000/svg">
<path d="M22.3556 20.5496V7.45865H31.1766V9.74061H25.1233V12.8599H30.7227V15.1419H25.1233V18.2676H31.2021V20.5496H22.3556ZM35.6334 20.5496H32.6675L37.1867 7.45865H40.7535L45.2662 20.5496H42.3003L39.0212 10.4501H38.9189L35.6334 20.5496ZM35.4481 15.404H42.4537V17.5645H35.4481V15.404ZM53.6446 11.2236C53.5935 10.7079 53.374 10.3074 52.9862 10.0219C52.5985 9.73635 52.0722 9.59359 51.4074 9.59359C50.9557 9.59359 50.5743 9.65751 50.2632 9.78536C49.9521 9.90894 49.7135 10.0815 49.5473 10.3031C49.3854 10.5247 49.3044 10.7761 49.3044 11.0574C49.2959 11.2917 49.3449 11.4963 49.4514 11.671C49.5622 11.8457 49.7135 11.997 49.9053 12.1248C50.097 12.2484 50.3186 12.3571 50.57 12.4508C50.8215 12.5403 51.0899 12.617 51.3754 12.681L52.5516 12.9622C53.1226 13.09 53.6468 13.2605 54.124 13.4736C54.6013 13.6866 55.0146 13.9487 55.3641 14.2598C55.7135 14.5709 55.9841 14.9373 56.1759 15.3592C56.3719 15.7811 56.472 16.2648 56.4763 16.8102C56.472 17.6114 56.2675 18.306 55.8627 18.894C55.4621 19.4778 54.8825 19.9317 54.124 20.2555C53.3698 20.5751 52.46 20.7349 51.3946 20.7349C50.3378 20.7349 49.4173 20.573 48.6333 20.2491C47.8534 19.9253 47.2441 19.4459 46.8051 18.8109C46.3705 18.1717 46.1425 17.3812 46.1212 16.4395H48.7994C48.8293 16.8784 48.955 17.2449 49.1766 17.5389C49.4024 17.8287 49.7029 18.0481 50.0779 18.1973C50.4571 18.3422 50.8854 18.4146 51.3627 18.4146C51.8314 18.4146 52.2384 18.3464 52.5835 18.2101C52.933 18.0737 53.2036 17.8841 53.3953 17.6412C53.5871 17.3983 53.683 17.1192 53.683 16.8038C53.683 16.5098 53.5956 16.2626 53.4209 16.0623C53.2504 15.8621 52.999 15.6916 52.6666 15.551C52.3385 15.4104 51.9358 15.2825 51.4585 15.1675L50.0331 14.8095C48.9294 14.541 48.058 14.1213 47.4188 13.5503C46.7796 12.9792 46.4621 12.2101 46.4664 11.2427C46.4621 10.4501 46.673 9.75766 47.0992 9.16533C47.5296 8.573 48.1198 8.11064 48.8698 7.77825C49.6198 7.44587 50.472 7.27967 51.4266 7.27967C52.3982 7.27967 53.2462 7.44587 53.9706 7.77825C54.6993 8.11064 55.2661 8.573 55.6709 9.16533C56.0757 9.75766 56.2845 10.4437 56.2973 11.2236H53.6446ZM57.5709 7.45865H60.6711L63.6562 13.0964H63.784L66.7691 7.45865H69.8692L65.0944 15.9217V20.5496H62.3458V15.9217L57.5709 7.45865ZM71.7085 9.74061V7.45865H82.46V9.74061H78.4521V20.5496H75.7164V9.74061H71.7085ZM84.2306 20.5496V7.45865H89.3953C90.384 7.45865 91.2277 7.6355 91.9266 7.98919C92.6297 8.33862 93.1645 8.83507 93.531 9.47854C93.9017 10.1177 94.0871 10.8699 94.0871 11.7349C94.0871 12.6042 93.8996 13.3521 93.5246 13.9785C93.1496 14.6007 92.6063 15.078 91.8946 15.4104C91.1872 15.7427 90.3307 15.9089 89.325 15.9089H85.8669V13.6845H88.8776C89.406 13.6845 89.8449 13.6121 90.1943 13.4672C90.5438 13.3223 90.8037 13.105 90.9742 12.8152C91.1489 12.5254 91.2362 12.1653 91.2362 11.7349C91.2362 11.3003 91.1489 10.9338 90.9742 10.6355C90.8037 10.3372 90.5416 10.1113 90.1879 9.95794C89.8385 9.80027 89.3975 9.72144 88.8648 9.72144H86.9983V20.5496H84.2306ZM91.3002 14.5922L94.5537 20.5496H91.4983L88.3151 14.5922H91.3002ZM98.2994 20.5496H95.3335L99.8527 7.45865H103.419L107.932 20.5496H104.966L101.687 10.4501H101.585L98.2994 20.5496ZM98.1141 15.404H105.12V17.5645H98.1141V15.404ZM114.149 20.5496H109.508V7.45865H114.187C115.504 7.45865 116.637 7.72073 117.587 8.24487C118.538 8.76476 119.269 9.51263 119.78 10.4885C120.296 11.4643 120.553 12.6319 120.553 13.9913C120.553 15.355 120.296 16.5268 119.78 17.5069C119.269 18.4871 118.533 19.2392 117.575 19.7633C116.62 20.2875 115.478 20.5496 114.149 20.5496ZM112.276 18.1781H114.033C114.852 18.1781 115.54 18.0332 116.098 17.7435C116.661 17.4494 117.082 16.9956 117.364 16.3819C117.649 15.764 117.792 14.9672 117.792 13.9913C117.792 13.024 117.649 12.2335 117.364 11.6199C117.082 11.0062 116.663 10.5545 116.104 10.2648C115.546 9.97499 114.858 9.8301 114.04 9.8301H112.276V18.1781ZM122.604 20.5496V7.45865H131.425V9.74061H125.371V12.8599H130.971V15.1419H125.371V18.2676H131.45V20.5496H122.604Z" fill="#782F9A"/>
<path d="M0.797852 33.366C0.797852 31.9402 1.18066 30.825 1.94629 30.0203C2.71191 29.2117 3.7002 28.8074 4.91113 28.8074C5.7041 28.8074 6.41895 28.9968 7.05566 29.3757C7.69238 29.7546 8.17676 30.2839 8.50879 30.9636C8.84473 31.6394 9.0127 32.407 9.0127 33.2664C9.0127 34.1375 8.83691 34.9167 8.48535 35.6042C8.13379 36.2917 7.63574 36.8132 6.99121 37.1687C6.34668 37.5203 5.65137 37.696 4.90527 37.696C4.09668 37.696 3.37402 37.5007 2.7373 37.1101C2.10059 36.7195 1.61816 36.1863 1.29004 35.5105C0.961914 34.8347 0.797852 34.1199 0.797852 33.366ZM1.96973 33.3835C1.96973 34.4187 2.24707 35.2351 2.80176 35.8328C3.36035 36.4265 4.05957 36.7234 4.89941 36.7234C5.75488 36.7234 6.45801 36.4226 7.00879 35.821C7.56348 35.2195 7.84082 34.366 7.84082 33.2605C7.84082 32.5613 7.72168 31.9519 7.4834 31.4324C7.24902 30.9089 6.90332 30.5046 6.44629 30.2195C5.99316 29.9304 5.4834 29.7859 4.91699 29.7859C4.1123 29.7859 3.41895 30.0632 2.83691 30.6179C2.25879 31.1687 1.96973 32.0906 1.96973 33.3835ZM10.4717 37.5496V28.9597H11.6377L16.1494 35.7039V28.9597H17.2393V37.5496H16.0732L11.5615 30.7996V37.5496H10.4717ZM19.1084 37.5496V28.9597H20.2451V36.5359H24.4756V37.5496H19.1084ZM26.0283 37.5496V28.9597H27.165V37.5496H26.0283ZM29.1631 37.5496V28.9597H30.3291L34.8408 35.7039V28.9597H35.9307V37.5496H34.7646L30.2529 30.7996V37.5496H29.1631ZM37.8701 37.5496V28.9597H44.0811V29.9734H39.0068V32.6042H43.7588V33.6121H39.0068V36.5359H44.2803V37.5496H37.8701ZM48.8037 34.7898L49.876 34.696C49.9268 35.1257 50.0439 35.4792 50.2275 35.7566C50.415 36.03 50.7041 36.2527 51.0947 36.4246C51.4854 36.5925 51.9248 36.6765 52.4131 36.6765C52.8467 36.6765 53.2295 36.6121 53.5615 36.4832C53.8936 36.3542 54.1396 36.1785 54.2998 35.9558C54.4639 35.7292 54.5459 35.4832 54.5459 35.2175C54.5459 34.948 54.4678 34.7136 54.3115 34.5144C54.1553 34.3113 53.8975 34.1414 53.5381 34.0046C53.3076 33.9148 52.7979 33.7761 52.0088 33.5886C51.2197 33.3972 50.667 33.2175 50.3506 33.0496C49.9404 32.8347 49.6338 32.5691 49.4307 32.2527C49.2314 31.9324 49.1318 31.575 49.1318 31.1804C49.1318 30.7468 49.2549 30.3425 49.501 29.9675C49.7471 29.5886 50.1064 29.3015 50.5791 29.1062C51.0518 28.9109 51.5771 28.8132 52.1553 28.8132C52.792 28.8132 53.3525 28.9167 53.8369 29.1238C54.3252 29.3269 54.7002 29.6277 54.9619 30.0261C55.2236 30.4246 55.3643 30.8757 55.3838 31.3796L54.2939 31.4617C54.2354 30.9187 54.0361 30.5085 53.6963 30.2312C53.3604 29.9539 52.8623 29.8152 52.2021 29.8152C51.5146 29.8152 51.0127 29.9421 50.6963 30.196C50.3838 30.446 50.2275 30.7488 50.2275 31.1042C50.2275 31.4128 50.3389 31.6667 50.5615 31.866C50.7803 32.0652 51.3506 32.2703 52.2725 32.4812C53.1982 32.6882 53.833 32.8699 54.1768 33.0261C54.6768 33.2566 55.0459 33.5496 55.2842 33.905C55.5225 34.2566 55.6416 34.6628 55.6416 35.1238C55.6416 35.5808 55.5107 36.0125 55.249 36.4187C54.9873 36.821 54.6104 37.1355 54.1182 37.3621C53.6299 37.5847 53.0791 37.696 52.4658 37.696C51.6885 37.696 51.0361 37.5828 50.5088 37.3562C49.9854 37.1296 49.5732 36.7898 49.2725 36.3367C48.9756 35.8796 48.8193 35.364 48.8037 34.7898ZM57.2295 37.5496V28.9597H58.3662V32.4871H62.8311V28.9597H63.9678V37.5496H62.8311V33.5007H58.3662V37.5496H57.2295ZM65.5205 33.366C65.5205 31.9402 65.9033 30.825 66.6689 30.0203C67.4346 29.2117 68.4229 28.8074 69.6338 28.8074C70.4268 28.8074 71.1416 28.9968 71.7783 29.3757C72.415 29.7546 72.8994 30.2839 73.2314 30.9636C73.5674 31.6394 73.7354 32.407 73.7354 33.2664C73.7354 34.1375 73.5596 34.9167 73.208 35.6042C72.8564 36.2917 72.3584 36.8132 71.7139 37.1687C71.0693 37.5203 70.374 37.696 69.6279 37.696C68.8193 37.696 68.0967 37.5007 67.46 37.1101C66.8232 36.7195 66.3408 36.1863 66.0127 35.5105C65.6846 34.8347 65.5205 34.1199 65.5205 33.366ZM66.6924 33.3835C66.6924 34.4187 66.9697 35.2351 67.5244 35.8328C68.083 36.4265 68.7822 36.7234 69.6221 36.7234C70.4775 36.7234 71.1807 36.4226 71.7314 35.821C72.2861 35.2195 72.5635 34.366 72.5635 33.2605C72.5635 32.5613 72.4443 31.9519 72.2061 31.4324C71.9717 30.9089 71.626 30.5046 71.1689 30.2195C70.7158 29.9304 70.2061 29.7859 69.6396 29.7859C68.835 29.7859 68.1416 30.0632 67.5596 30.6179C66.9814 31.1687 66.6924 32.0906 66.6924 33.3835ZM75.2061 37.5496V28.9597H78.4463C79.0166 28.9597 79.4521 28.9871 79.7529 29.0417C80.1748 29.1121 80.5283 29.2468 80.8135 29.446C81.0986 29.6414 81.3271 29.9167 81.499 30.2722C81.6748 30.6277 81.7627 31.0183 81.7627 31.4441C81.7627 32.1746 81.5303 32.7937 81.0654 33.3015C80.6006 33.8054 79.7607 34.0574 78.5459 34.0574H76.3428V37.5496H75.2061ZM76.3428 33.0437H78.5635C79.2979 33.0437 79.8193 32.907 80.1279 32.6335C80.4365 32.3601 80.5908 31.9753 80.5908 31.4792C80.5908 31.1199 80.499 30.8132 80.3154 30.5593C80.1357 30.3015 79.8975 30.1316 79.6006 30.0496C79.4092 29.9988 79.0557 29.9734 78.54 29.9734H76.3428V33.0437ZM91.1025 36.5359C90.7549 36.9226 90.376 37.2136 89.9658 37.4089C89.5557 37.6003 89.1123 37.696 88.6357 37.696C87.7568 37.696 87.0596 37.3992 86.5439 36.8054C86.126 36.321 85.917 35.78 85.917 35.1824C85.917 34.6511 86.0869 34.1726 86.4268 33.7468C86.7705 33.3171 87.2822 32.9402 87.9619 32.616C87.5752 32.1707 87.3174 31.8093 87.1885 31.532C87.0596 31.2546 86.9951 30.9871 86.9951 30.7292C86.9951 30.2136 87.1963 29.7664 87.5986 29.3875C88.0049 29.0046 88.5146 28.8132 89.1279 28.8132C89.7139 28.8132 90.1924 28.9929 90.5635 29.3523C90.9385 29.7117 91.126 30.1433 91.126 30.6472C91.126 31.4636 90.585 32.1609 89.5029 32.739L91.0439 34.7019C91.2197 34.3582 91.3564 33.9597 91.4541 33.5066L92.5498 33.741C92.3623 34.491 92.1084 35.1082 91.7881 35.5925C92.1826 36.116 92.6299 36.5554 93.1299 36.9109L92.4209 37.7488C91.9951 37.4753 91.5557 37.071 91.1025 36.5359ZM88.958 32.0593C89.415 31.7898 89.71 31.5535 89.8428 31.3503C89.9795 31.1472 90.0479 30.9226 90.0479 30.6765C90.0479 30.3835 89.9541 30.1453 89.7666 29.9617C89.583 29.7742 89.3525 29.6804 89.0752 29.6804C88.79 29.6804 88.5518 29.7722 88.3604 29.9558C88.1729 30.1394 88.0791 30.364 88.0791 30.6296C88.0791 30.7625 88.1123 30.9031 88.1787 31.0515C88.249 31.196 88.3525 31.3503 88.4893 31.5144L88.958 32.0593ZM90.4404 35.7039L88.5068 33.3074C87.9365 33.6472 87.5518 33.9636 87.3525 34.2566C87.1533 34.5457 87.0537 34.8328 87.0537 35.1179C87.0537 35.4656 87.1924 35.8269 87.4697 36.2019C87.7471 36.5769 88.1396 36.7644 88.6475 36.7644C88.9639 36.7644 89.29 36.6667 89.626 36.4714C89.9658 36.2722 90.2373 36.0164 90.4404 35.7039ZM97.6357 37.5496V28.9597H99.3467L101.38 35.0417C101.567 35.6082 101.704 36.032 101.79 36.3132C101.888 36.0007 102.04 35.5417 102.247 34.9363L104.304 28.9597H105.833V37.5496H104.737V30.3601L102.241 37.5496H101.216L98.7314 30.2371V37.5496H97.6357ZM107.321 33.366C107.321 31.9402 107.704 30.825 108.47 30.0203C109.235 29.2117 110.224 28.8074 111.435 28.8074C112.228 28.8074 112.942 28.9968 113.579 29.3757C114.216 29.7546 114.7 30.2839 115.032 30.9636C115.368 31.6394 115.536 32.407 115.536 33.2664C115.536 34.1375 115.36 34.9167 115.009 35.6042C114.657 36.2917 114.159 36.8132 113.515 37.1687C112.87 37.5203 112.175 37.696 111.429 37.696C110.62 37.696 109.897 37.5007 109.261 37.1101C108.624 36.7195 108.142 36.1863 107.813 35.5105C107.485 34.8347 107.321 34.1199 107.321 33.366ZM108.493 33.3835C108.493 34.4187 108.771 35.2351 109.325 35.8328C109.884 36.4265 110.583 36.7234 111.423 36.7234C112.278 36.7234 112.981 36.4226 113.532 35.821C114.087 35.2195 114.364 34.366 114.364 33.2605C114.364 32.5613 114.245 31.9519 114.007 31.4324C113.772 30.9089 113.427 30.5046 112.97 30.2195C112.517 29.9304 112.007 29.7859 111.44 29.7859C110.636 29.7859 109.942 30.0632 109.36 30.6179C108.782 31.1687 108.493 32.0906 108.493 33.3835ZM117.024 37.5496V28.9597H120.833C121.599 28.9597 122.181 29.0378 122.579 29.1941C122.978 29.3464 123.296 29.6179 123.534 30.0085C123.772 30.3992 123.892 30.8308 123.892 31.3035C123.892 31.9128 123.694 32.4265 123.3 32.8445C122.905 33.2625 122.296 33.5281 121.472 33.6414C121.772 33.7859 122.001 33.9285 122.157 34.0691C122.489 34.3738 122.804 34.7546 123.101 35.2117L124.595 37.5496H123.165L122.028 35.7625C121.696 35.2468 121.423 34.8523 121.208 34.5789C120.993 34.3054 120.8 34.114 120.628 34.0046C120.46 33.8953 120.288 33.8191 120.112 33.7761C119.983 33.7488 119.772 33.7351 119.479 33.7351H118.161V37.5496H117.024ZM118.161 32.7507H120.604C121.124 32.7507 121.53 32.698 121.823 32.5925C122.116 32.4832 122.339 32.3113 122.491 32.0769C122.644 31.8386 122.72 31.5808 122.72 31.3035C122.72 30.8972 122.571 30.5632 122.274 30.3015C121.981 30.0398 121.517 29.9089 120.88 29.9089H118.161V32.7507ZM125.702 37.5496V28.9597H131.913V29.9734H126.839V32.6042H131.591V33.6121H126.839V36.5359H132.112V37.5496H125.702Z" fill="#293D9B"/>
<g filter="url(#filter0_d_441_1314)">
<path d="M142.354 32.4089C142.218 31.292 142.05 30.1777 141.954 29.0573C141.712 26.2432 141.56 23.4204 141.264 20.6124C140.964 17.7703 142.145 15.587 144.225 13.8851C146.237 12.2396 148.384 10.7552 150.514 9.26155C154.383 6.54947 158.285 3.88441 161.142 -7.24792e-05C162.094 0.47333 162.36 1.17338 162.348 2.16616C162.299 6.27921 162.301 10.3934 162.35 14.5065C162.36 15.3254 162.069 15.7419 161.412 16.181C157.088 19.0721 152.799 22.0156 148.498 24.942C145.826 26.918 143.563 29.2297 142.354 32.4089Z" fill="#F4EBF7"/>
</g>
<path d="M184.681 10.2507C184.929 12.883 185.184 15.5147 185.421 18.1481C185.532 19.3806 185.556 20.6229 185.713 21.849C186.133 25.1233 184.601 27.5107 182.162 29.3583C179.061 31.7069 175.741 33.7717 172.703 36.1945C170.371 38.0547 168.33 40.2804 166.157 42.3409C166.033 42.4585 165.887 42.5519 165.439 42.8959C164.972 43.2849 164.732 41.2933 164.72 40.5687C164.654 36.6276 164.741 32.6838 164.657 28.7434C164.631 27.5261 165.061 26.9066 166.061 26.2477C170.222 23.5042 174.301 20.6352 178.411 17.8124C181.114 15.8006 183.531 13.5503 184.681 10.2507Z" fill="#ACD6F2"/>
<path d="M184.681 10.2506C183.53 13.5502 181.114 15.8005 178.41 17.8123C175.372 17.6183 172.335 17.3958 169.295 17.2435C167.84 17.1706 166.377 17.2309 164.803 17.2309V0.137798C166.432 0.34907 168.092 0.44088 169.693 0.797779C172.905 1.51409 176.123 2.25154 179.26 3.23442C180.602 3.65518 181.86 4.57759 182.951 5.51212C184.35 6.71056 184.952 8.36095 184.681 10.2506Z" fill="#4A81CA"/>
<path d="M142.354 32.409C143.563 29.2297 145.826 26.918 148.498 24.9421C153.033 25.2018 157.569 25.4616 162.219 25.7279V42.5776C160.204 42.2964 158.174 42.0439 156.155 41.7244C152.313 41.1165 148.522 40.3261 145.231 38.074C143.249 36.7175 142.041 34.9431 142.354 32.409Z" fill="#57399D"/>
<defs>
<filter id="filter0_d_441_1314" x="137.218" y="0" width="29.1323" height="40.4089" filterUnits="userSpaceOnUse" color-interpolation-filters="sRGB">
<feFlood flood-opacity="0" result="BackgroundImageFix"/>
<feColorMatrix in="SourceAlpha" type="matrix" values="0 0 0 0 0 0 0 0 0 0 0 0 0 0 0 0 0 0 127 0" result="hardAlpha"/>
<feOffset dy="4"/>
<feGaussianBlur stdDeviation="2"/>
<feComposite in2="hardAlpha" operator="out"/>
<feColorMatrix type="matrix" values="0 0 0 0 0 0 0 0 0 0 0 0 0 0 0 0 0 0 0.25 0"/>
<feBlend mode="normal" in2="BackgroundImageFix" result="effect1_dropShadow_441_1314"/>
<feBlend mode="normal" in="SourceGraphic" in2="effect1_dropShadow_441_1314" result="shape"/>
</filter>
</defs>
</svg>
